{"asset":{"version":"2.0","generator":"babylon.js glTF exporter for Maya 2018 v20210225.1"},"scene":0,"scenes":[{"nodes":[0]}],"nodes":[{"children":[1,2,3,4,5,6],"name":"pSphere1"},{"mesh":0,"name":"polySurface2"},{"mesh":1,"name":"polySurface3"},{"mesh":2,"name":"polySurface4"},{"mesh":3,"name":"polySurface5"},{"mesh":4,"name":"polySurface6"},{"mesh":5,"name":"polySurface7"}],"meshes":[{"primitives":[{"attributes":{"POSITION":1,"TANGENT":2,"NORMAL":3,"TEXCOORD_0":4},"indices":0,"material":0}],"name":"polySurface2"},{"primitives":[{"attributes":{"POSITION":6,"TANGENT":7,"NORMAL":8,"TEXCOORD_0":9},"indices":5,"material":1}],"name":"polySurface3"},{"primitives":[{"attributes":{"POSITION":11,"TANGENT":12,"NORMAL":13,"TEXCOORD_0":14},"indices":10,"material":2}],"name":"polySurface4"},{"primitives":[{"attributes":{"POSITION":16,"TANGENT":17,"NORMAL":18,"TEXCOORD_0":19},"indices":15,"material":3}],"name":"polySurface5"},{"primitives":[{"attributes":{"POSITION":21,"TANGENT":22,"NORMAL":23,"TEXCOORD_0":24},"indices":20,"material":4}],"name":"polySurface6"},{"primitives":[{"attributes":{"POSITION":26,"TANGENT":27,"NORMAL":28,"TEXCOORD_0":29},"indices":25,"material":5}],"name":"polySurface7"}],"accessors":[{"bufferView":0,"componentType":5123,"count":480,"type":"SCALAR","name":"accessorIndices"},{"bufferView":1,"componentType":5126,"count":99,"max":[-0.0196287557,-0.0127861816,-0.0258358922],"min":[-0.07374925,-0.0514374226,-0.07677749],"type":"VEC3","name":"accessorPositions"},{"bufferView":2,"componentType":5126,"count":99,"type":"VEC4","name":"accessorTangents"},{"bufferView":1,"byteOffset":1188,"componentType":5126,"count":99,"type":"VEC3","name":"accessorNormals"},{"bufferView":3,"componentType":5126,"count":99,"type":"VEC2","name":"accessorUVs"},{"bufferView":0,"byteOffset":960,"componentType":5123,"count":480,"type":"SCALAR","name":"accessorIndices"},{"bufferView":1,"byteOffset":2376,"componentType":5126,"count":99,"max":[0.08173487,5.365144E-19,0.0252574645],"min":[0.0613012053,-0.040867433,-0.0408674739],"type":"VEC3","name":"accessorPositions"},{"bufferView":2,"byteOffset":1584,"componentType":5126,"count":99,"type":"VEC4","name":"accessorTangents"},{"bufferView":1,"byteOffset":3564,"componentType":5126,"count":99,"type":"VEC3","name":"accessorNormals"},{"bufferView":3,"byteOffset":792,"componentType":5126,"count":99,"type":"VEC2","name":"accessorUVs"},{"bufferView":0,"byteOffset":1920,"componentType":5123,"count":480,"type":"SCALAR","name":"accessorIndices"},{"bufferView":1,"byteOffset":4752,"componentType":5126,"count":99,"max":[-0.0225045625,0.004277713,0.0777345],"min":[-0.07466854,-0.03710686,0.0296211373],"type":"VEC3","name":"accessorPositions"},{"bufferView":2,"byteOffset":3168,"componentType":5126,"count":99,"type":"VEC4","name":"accessorTangents"},{"bufferView":1,"byteOffset":5940,"componentType":5126,"count":99,"type":"VEC3","name":"accessorNormals"},{"bufferView":3,"byteOffset":1584,"componentType":5126,"count":99,"type":"VEC2","name":"accessorUVs"},{"bufferView":0,"byteOffset":2880,"componentType":5123,"count":480,"type":"SCALAR","name":"accessorIndices"},{"bufferView":1,"byteOffset":7128,"componentType":5126,"count":99,"max":[0.05469132,0.0292911716,0.08173488],"min":[-0.008543613,-0.0127861816,0.0567064658],"type":"VEC3","name":"accessorPositions"},{"bufferView":2,"byteOffset":4752,"componentType":5126,"count":99,"type":"VEC4","name":"accessorTangents"},{"bufferView":1,"byteOffset":8316,"componentType":5126,"count":99,"type":"VEC3","name":"accessorNormals"},{"bufferView":3,"byteOffset":2376,"componentType":5126,"count":99,"type":"VEC2","name":"accessorUVs"},{"bufferView":0,"byteOffset":3840,"componentType":5123,"count":480,"type":"SCALAR","name":"accessorIndices"},{"bufferView":1,"byteOffset":9504,"componentType":5126,"count":99,"max":[0.05401799,0.0514374226,-0.0472045466],"min":[-0.008438447,0.0127861816,-0.08072863],"type":"VEC3","name":"accessorPositions"},{"bufferView":2,"byteOffset":6336,"componentType":5126,"count":99,"type":"VEC4","name":"accessorTangents"},{"bufferView":1,"byteOffset":10692,"componentType":5126,"count":99,"type":"VEC3","name":"accessorNormals"},{"bufferView":3,"byteOffset":3168,"componentType":5126,"count":99,"type":"VEC2","name":"accessorUVs"},{"bufferView":0,"byteOffset":4800,"componentType":5123,"count":480,"type":"SCALAR","name":"accessorIndices"},{"bufferView":1,"byteOffset":11880,"componentType":5126,"count":99,"max":[-0.0499630123,0.0607408471,0.0316174738],"min":[-0.0777345151,0.02525748,-0.0316174738],"type":"VEC3","name":"accessorPositions"},{"bufferView":2,"byteOffset":7920,"componentType":5126,"count":99,"type":"VEC4","name":"accessorTangents"},{"bufferView":1,"byteOffset":13068,"componentType":5126,"count":99,"type":"VEC3","name":"accessorNormals"},{"bufferView":3,"byteOffset":3960,"componentType":5126,"count":99,"type":"VEC2","name":"accessorUVs"}],"bufferViews":[{"buffer":0,"byteLength":5760,"name":"bufferViewScalar"},{"buffer":0,"byteOffset":5760,"byteLength":14256,"byteStride":12,"name":"bufferViewFloatVec3"},{"buffer":0,"byteOffset":20016,"byteLength":9504,"byteStride":16,"name":"bufferViewFloatVec4"},{"buffer":0,"byteOffset":29520,"byteLength":4752,"byteStride":8,"name":"bufferViewFloatVec2"}],"buffers":[{"uri":"qiu.bin","byteLength":34272}],"materials":[{"pbrMetallicRoughness":{"baseColorTexture":{"index":0},"metallicFactor":0.0},"doubleSided":true,"name":"StingrayPBS6"},{"pbrMetallicRoughness":{"baseColorTexture":{"index":1},"metallicFactor":0.0},"doubleSided":true,"name":"StingrayPBS4"},{"pbrMetallicRoughness":{"baseColorTexture":{"index":2},"metallicFactor":0.0},"doubleSided":true,"name":"StingrayPBS2"},{"pbrMetallicRoughness":{"baseColorTexture":{"index":3},"metallicFactor":0.0},"doubleSided":true,"name":"StingrayPBS3"},{"pbrMetallicRoughness":{"baseColorTexture":{"index":4},"metallicFactor":0.0},"doubleSided":true,"name":"StingrayPBS5"},{"pbrMetallicRoughness":{"baseColorTexture":{"index":5},"metallicFactor":0.0},"doubleSided":true,"name":"StingrayPBS1"}],"textures":[{"sampler":0,"source":0,"name":"liveroom06.png"},{"sampler":0,"source":1,"name":"liveroom04.png"},{"sampler":0,"source":2,"name":"LIVEROOM02.png"},{"sampler":0,"source":3,"name":"LIVEROOM03.png"},{"sampler":0,"source":4,"name":"LIVEROOM05.png"},{"sampler":0,"source":5,"name":"liveroom01.png"}],"images":[{"uri":"liveroom06.png"},{"uri":"liveroom04.png"},{"uri":"LIVEROOM02.png"},{"uri":"LIVEROOM03.png"},{"uri":"LIVEROOM05.png"},{"uri":"liveroom01.png"}],"samplers":[{"magFilter":9729,"minFilter":9987}]}