{"asset":{"version":"2.0","generator":"babylon.js glTF exporter for Maya 2018 v20210225.1"},"scene":0,"scenes":[{"nodes":[0]}],"nodes":[{"children":[1,2,3,4,5,6],"scale":[7.11317444,7.11317444,7.11317444],"name":"pSphere1"},{"mesh":0,"translation":[-0.00151094922,0.0006038938,0.000848678057],"scale":[1.1846422,1.1846422,1.1846422],"name":"polySurface2"},{"mesh":1,"translation":[0.00173773034,0.0004653968,0.000348695234],"scale":[1.1846422,1.1846422,1.1846422],"name":"polySurface3"},{"mesh":2,"translation":[-0.0006160464,0.0004653968,-0.00166277983],"scale":[1.1846422,1.1846422,1.1846422],"name":"polySurface4"},{"mesh":3,"translation":[0.00034869407,-0.0004653968,0.00173772988],"scale":[1.1846422,1.1846422,1.1846422],"name":"polySurface5"},{"mesh":4,"translation":[-0.001600793,-0.000671798654,-0.0005943379],"scale":[1.1846422,1.1846422,1.1846422],"name":"polySurface6"},{"mesh":5,"translation":[0.0009749354,-0.00127751217,-0.0009021667],"scale":[1.1846422,1.1846422,1.1846422],"name":"polySurface7"}],"meshes":[{"primitives":[{"attributes":{"POSITION":1,"TANGENT":2,"NORMAL":3,"TEXCOORD_0":4},"indices":0,"material":0}],"name":"polySurface2"},{"primitives":[{"attributes":{"POSITION":6,"TANGENT":7,"NORMAL":8,"TEXCOORD_0":9},"indices":5,"material":1}],"name":"polySurface3"},{"primitives":[{"attributes":{"POSITION":11,"TANGENT":12,"NORMAL":13,"TEXCOORD_0":14},"indices":10,"material":2}],"name":"polySurface4"},{"primitives":[{"attributes":{"POSITION":16,"TANGENT":17,"NORMAL":18,"TEXCOORD_0":19},"indices":15,"material":3}],"name":"polySurface5"},{"primitives":[{"attributes":{"POSITION":21,"TANGENT":22,"NORMAL":23,"TEXCOORD_0":24},"indices":20,"material":4}],"name":"polySurface6"},{"primitives":[{"attributes":{"POSITION":26,"TANGENT":27,"NORMAL":28,"TEXCOORD_0":29},"indices":25,"material":5}],"name":"polySurface7"}],"accessors":[{"bufferView":0,"componentType":5123,"count":54,"type":"SCALAR","name":"accessorIndices"},{"bufferView":1,"componentType":5126,"count":16,"max":[0.008891908,-0.00271440041,-0.003535522],"min":[0.007474329,-0.00382683123,-0.00565715367],"type":"VEC3","name":"accessorPositions"},{"bufferView":2,"componentType":5126,"count":16,"type":"VEC4","name":"accessorTangents"},{"bufferView":1,"byteOffset":192,"componentType":5126,"count":16,"type":"VEC3","name":"accessorNormals"},{"bufferView":3,"componentType":5126,"count":16,"type":"VEC2","name":"accessorUVs"},{"bufferView":0,"byteOffset":108,"componentType":5123,"count":54,"type":"SCALAR","name":"accessorIndices"},{"bufferView":1,"byteOffset":384,"componentType":5126,"count":16,"max":[-0.009045071,-0.001950899,-0.000746191654],"min":[-0.009777604,-0.00309016649,-0.00303079118],"type":"VEC3","name":"accessorPositions"},{"bufferView":2,"byteOffset":256,"componentType":5126,"count":16,"type":"VEC4","name":"accessorTangents"},{"bufferView":1,"byteOffset":576,"componentType":5126,"count":16,"type":"VEC3","name":"accessorNormals"},{"bufferView":3,"byteOffset":128,"componentType":5126,"count":16,"type":"VEC2","name":"accessorUVs"},{"bufferView":0,"byteOffset":216,"componentType":5123,"count":54,"type":"SCALAR","name":"accessorIndices"},{"bufferView":1,"byteOffset":768,"componentType":5126,"count":16,"max":[0.00445267,-0.001950899,0.009536857],"min":[0.002220196,-0.00309016649,0.008473973],"type":"VEC3","name":"accessorPositions"},{"bufferView":2,"byteOffset":512,"componentType":5126,"count":16,"type":"VEC4","name":"accessorTangents"},{"bufferView":1,"byteOffset":960,"componentType":5126,"count":16,"type":"VEC3","name":"accessorNormals"},{"bufferView":3,"byteOffset":256,"componentType":5126,"count":16,"type":"VEC2","name":"accessorUVs"},{"bufferView":0,"byteOffset":324,"componentType":5123,"count":54,"type":"SCALAR","name":"accessorIndices"},{"bufferView":1,"byteOffset":1152,"componentType":5126,"count":16,"max":[-0.0007461856,0.00309016649,-0.00904507],"min":[-0.00303078443,0.001950899,-0.0097776],"type":"VEC3","name":"accessorPositions"},{"bufferView":2,"byteOffset":768,"componentType":5126,"count":16,"type":"VEC4","name":"accessorTangents"},{"bufferView":1,"byteOffset":1344,"componentType":5126,"count":16,"type":"VEC3","name":"accessorNormals"},{"bufferView":3,"byteOffset":384,"componentType":5126,"count":16,"type":"VEC2","name":"accessorUVs"},{"bufferView":0,"byteOffset":432,"componentType":5123,"count":54,"type":"SCALAR","name":"accessorIndices"},{"bufferView":1,"byteOffset":1536,"componentType":5126,"count":16,"max":[0.009247788,0.00418659439,0.00431770645],"min":[0.008091615,0.00309016649,0.00212001824],"type":"VEC3","name":"accessorPositions"},{"bufferView":2,"byteOffset":1024,"componentType":5126,"count":16,"type":"VEC4","name":"accessorTangents"},{"bufferView":1,"byteOffset":1728,"componentType":5126,"count":16,"type":"VEC3","name":"accessorNormals"},{"bufferView":3,"byteOffset":512,"componentType":5126,"count":16,"type":"VEC2","name":"accessorUVs"},{"bufferView":0,"byteOffset":540,"componentType":5123,"count":54,"type":"SCALAR","name":"accessorIndices"},{"bufferView":1,"byteOffset":1920,"componentType":5126,"count":16,"max":[-0.004408456,0.00734322332,0.005782166],"min":[-0.006151809,0.00649447925,0.00398988556],"type":"VEC3","name":"accessorPositions"},{"bufferView":2,"byteOffset":1280,"componentType":5126,"count":16,"type":"VEC4","name":"accessorTangents"},{"bufferView":1,"byteOffset":2112,"componentType":5126,"count":16,"type":"VEC3","name":"accessorNormals"},{"bufferView":3,"byteOffset":640,"componentType":5126,"count":16,"type":"VEC2","name":"accessorUVs"}],"bufferViews":[{"buffer":0,"byteLength":648,"name":"bufferViewScalar"},{"buffer":0,"byteOffset":648,"byteLength":2304,"byteStride":12,"name":"bufferViewFloatVec3"},{"buffer":0,"byteOffset":2952,"byteLength":1536,"byteStride":16,"name":"bufferViewFloatVec4"},{"buffer":0,"byteOffset":4488,"byteLength":768,"byteStride":8,"name":"bufferViewFloatVec2"}],"buffers":[{"uri":"qiu.bin","byteLength":5256}],"materials":[{"pbrMetallicRoughness":{"baseColorTexture":{"index":0},"metallicFactor":0.0,"roughnessFactor":0.201679826},"emissiveTexture":{"index":0},"emissiveFactor":[1.0,1.0,1.0],"doubleSided":true,"name":"pm:a2"},{"pbrMetallicRoughness":{"baseColorTexture":{"index":1},"metallicFactor":0.0,"roughnessFactor":0.201679826},"emissiveTexture":{"index":1},"emissiveFactor":[1.0,1.0,1.0],"doubleSided":true,"name":"pm:a4"},{"pbrMetallicRoughness":{"baseColorTexture":{"index":2},"metallicFactor":0.0,"roughnessFactor":0.201679826},"emissiveTexture":{"index":2},"emissiveFactor":[1.0,1.0,1.0],"doubleSided":true,"name":"pm:a6"},{"pbrMetallicRoughness":{"baseColorTexture":{"index":3},"metallicFactor":0.0,"roughnessFactor":0.201679826},"emissiveTexture":{"index":3},"emissiveFactor":[1.0,1.0,1.0],"doubleSided":true,"name":"pm:a3"},{"pbrMetallicRoughness":{"baseColorTexture":{"index":4},"metallicFactor":0.0,"roughnessFactor":0.201679826},"emissiveTexture":{"index":4},"emissiveFactor":[1.0,1.0,1.0],"doubleSided":true,"name":"pm:a1"},{"pbrMetallicRoughness":{"baseColorTexture":{"index":5},"metallicFactor":0.0,"roughnessFactor":0.201679826},"emissiveTexture":{"index":5},"emissiveFactor":[1.0,1.0,1.0],"doubleSided":true,"name":"pm:a5"}],"textures":[{"sampler":0,"source":0,"name":"LIVEROOM02.png"},{"sampler":0,"source":1,"name":"liveroom04.png"},{"sampler":0,"source":2,"name":"liveroom06.png"},{"sampler":0,"source":3,"name":"LIVEROOM03.png"},{"sampler":0,"source":4,"name":"liveroom01.png"},{"sampler":0,"source":5,"name":"LIVEROOM05.png"}],"images":[{"uri":"LIVEROOM02.png"},{"uri":"liveroom04.png"},{"uri":"liveroom06.png"},{"uri":"LIVEROOM03.png"},{"uri":"liveroom01.png"},{"uri":"LIVEROOM05.png"}],"samplers":[{"magFilter":9729,"minFilter":9987}]}